HIERARCHY
ROOT Hips
{
	OFFSET	0.000000	0.000000	0.000000
	CHANNELS 6 Xposition Yposition Zposition Zrotation Xrotation Yrotation
	JOINT LeftUpLeg
	{
		OFFSET	12.830505	-7.049846	-1.643436
		CHANNELS 3 Zrotation Xrotation Yrotation
		JOINT LeftLeg
		{
			OFFSET	0.620834	-39.957500	-1.919341
			CHANNELS 3 Zrotation Xrotation Yrotation
			JOINT LeftFoot
			{
				OFFSET	-0.413890	-44.704761	-3.870325
				CHANNELS 3 Zrotation Xrotation Yrotation
				JOINT LeftFootHeel
				{
					OFFSET	0.164738	-8.918193	-6.555130
					CHANNELS 3 Zrotation Xrotation Yrotation
					End Site
					{
						OFFSET	-0.604053	0.000000	21.044330
					}
				}
			}
		}
	}
	JOINT RightUpLeg
	{
		OFFSET	-12.830505	-7.049846	-1.643436
		CHANNELS 3 Zrotation Xrotation Yrotation
		JOINT RightLeg
		{
			OFFSET	-0.620834	-39.957500	-1.919341
			CHANNELS 3 Zrotation Xrotation Yrotation
			JOINT RightFoot
			{
				OFFSET	0.413890	-44.704761	-3.870325
				CHANNELS 3 Zrotation Xrotation Yrotation
				JOINT RightFootHeel
				{
					OFFSET	-0.164738	-8.918193	-6.555130
					CHANNELS 3 Zrotation Xrotation Yrotation
					End Site
					{
						OFFSET	0.604053	0.000000	21.044330
					}
				}
			}
		}
	}
	JOINT Spine
	{
		OFFSET	0.000000	12.498170	1.820647
		CHANNELS 3 Zrotation Xrotation Yrotation
		JOINT Spine1
		{
			OFFSET	0.000000	7.620000	0.000000
			CHANNELS 3 Zrotation Xrotation Yrotation
			JOINT LeftShoulder
			{
				OFFSET	9.167800	29.136339	-5.551221
				CHANNELS 3 Zrotation Xrotation Yrotation
				JOINT LeftArm
				{
					OFFSET	12.133453	-3.880866	1.461963
					CHANNELS 3 Zrotation Xrotation Yrotation
					JOINT LeftForeArm
					{
						OFFSET	2.507115	-31.664908	-1.069404
						CHANNELS 3 Zrotation Xrotation Yrotation
						JOINT LeftHand
						{
							OFFSET	4.116172	-24.512624	5.009439
							CHANNELS 3 Zrotation Xrotation Yrotation
							End Site
							{
								OFFSET	-0.213136	-10.931856	2.182134
							}
						}
					}
				}
			}
			JOINT RightShoulder
			{
				OFFSET	-9.167800	29.136339	-5.551221
				CHANNELS 3 Zrotation Xrotation Yrotation
				JOINT RightArm
				{
					OFFSET	-12.133453	-3.880866	1.461963
					CHANNELS 3 Zrotation Xrotation Yrotation
					JOINT RightForeArm
					{
						OFFSET	-2.507115	-31.664908	-1.069404
						CHANNELS 3 Zrotation Xrotation Yrotation
						JOINT RightHand
						{
							OFFSET	-4.116172	-24.512624	5.009439
							CHANNELS 3 Zrotation Xrotation Yrotation
							End Site
							{
								OFFSET	0.213136	-10.931856	2.182134
							}
						}
					}
				}
			}
			JOINT Neck
			{
				OFFSET	0.000000	32.926272	-3.635654
				CHANNELS 3 Zrotation Xrotation Yrotation
				JOINT Head
				{
					OFFSET	0.000000	12.481178	4.646143
					CHANNELS 3 Zrotation Xrotation Yrotation
					End Site
					{
						OFFSET	0.000000	17.715204	-2.222063
					}
				}
			}
		}
	}
}
MOTION
Frames:     12
Frame Time: 0.016667
3.610689	100.740196	5.006894	-2.691143	6.339566	51.211094	10.164706	-22.681524	16.210007	3.965780	27.253593	-1.084911	-9.746080	-0.563788	-4.951137	0.	0.	0.	-19.389736	-16.831385	-17.299358	1.737425	26.282351	-6.021766	10.849776	-5.758251	-4.867437	0.	0.	0.	0.000001	0.000000	0.000000	-16.925579	8.536664	14.816894	14.261594	8.328546	-5.418779	-7.522528	-44.684322	-9.878083	-111.798119	-23.369492	-77.264542	-6.652222	1.930992	-0.143454	-6.736693	-5.096532	0.024940	-86.694756	6.051721	-41.521160	84.250557	-69.741432	60.417007	1.174228	-5.810647	1.129187	-6.862566	11.267473	-24.553854	26.447002	-10.958627	-11.717281	
3.311548	101.109457	4.981668	-1.843505	6.782121	51.488186	9.118979	-22.523865	16.020214	3.959836	26.880682	-1.069122	-9.445259	1.912035	-5.195321	0.	0.	0.	-20.396832	-16.457567	-17.758703	1.736342	26.258514	-6.454556	10.954580	-4.946909	-4.306813	0.	0.	0.	-0.000001	0.000000	-0.000002	-18.748205	9.206958	20.813353	15.295013	5.567251	-9.436059	-5.183938	-44.714561	-6.714783	-113.095398	-21.903284	-76.516724	-6.564266	1.711379	-0.059867	-6.450577	-9.115017	-0.103808	-98.166359	1.167791	-32.995045	88.366287	-68.891327	64.843231	1.612415	-5.781332	2.915000	-6.301525	9.088054	-28.810827	26.731909	-10.122606	-13.611335	
3.062588	101.311344	4.910732	-1.140906	7.105685	52.040668	8.321972	-22.600679	15.645412	3.988051	26.728333	-1.180427	-9.182950	4.391675	-5.426145	0.	0.	0.	-21.401192	-16.193680	-18.248968	1.908490	26.706926	-6.883817	11.041409	-4.569047	-4.005394	0.	0.	0.	-0.000000	-0.000000	-0.000001	-19.755436	5.882414	25.660612	17.163370	7.055222	-12.049860	-4.065269	-45.086540	-6.355127	-113.696953	-21.822426	-77.128197	-5.381103	1.949662	-1.562351	-5.198440	-8.063727	2.487577	-107.726593	-1.929838	-26.635780	93.799919	-66.762962	69.329842	3.249820	-6.346788	4.117783	-3.915955	9.759865	-31.874674	26.510748	-9.159904	-15.631445	
2.939907	101.528540	5.516405	-0.926536	7.884183	53.129879	7.690301	-22.857733	15.233304	4.074380	26.263912	-1.512870	-9.120558	6.987844	-5.957227	0.	0.	0.	-22.171494	-16.163076	-18.874449	1.979256	27.349199	-7.386127	11.117140	-4.667221	-4.034444	0.	0.	0.	-0.000000	0.000000	-0.000000	-20.955736	5.948544	29.379211	17.372522	6.223651	-11.366000	-4.990292	-46.499607	-9.956886	-113.402428	-22.059818	-77.203415	-5.346425	1.639017	-1.539999	-5.979822	-8.734080	3.654681	-113.111694	-6.604839	-23.235161	95.992638	-66.359268	71.513268	4.276724	-5.769497	5.693211	-1.956736	6.666859	-34.843288	26.703209	-8.211322	-18.464565	
3.023168	101.703248	6.395104	-0.917012	8.782833	54.955353	7.128315	-23.043621	14.535343	4.004714	25.381126	-1.907480	-9.253110	9.393085	-7.016052	0.	0.	0.	-22.910152	-15.540321	-20.208441	2.002083	27.632290	-7.601946	11.131575	-5.324028	-4.257084	0.	0.	0.	-0.000000	-0.000001	-0.000002	-21.618362	6.048946	31.080332	17.280483	5.151163	-12.745800	-4.106490	-47.496628	-9.922979	-111.762688	-22.549541	-77.559448	-5.729392	0.825665	-1.183649	-6.831513	-8.355957	4.901812	-113.777672	-11.245373	-24.769728	98.287971	-65.614975	74.419342	5.991513	-5.449916	6.940084	-0.796630	4.140558	-35.162777	26.552891	-7.841540	-21.266022	
3.439045	101.809375	7.529187	-0.803300	9.515129	57.233406	6.643110	-22.895613	13.730889	4.001363	24.406683	-2.619841	-9.554355	11.146859	-8.482965	0.	0.	0.	-23.552839	-13.965803	-21.594498	2.283190	27.577782	-7.667775	11.063962	-6.486755	-4.798837	0.	0.	0.	0.000000	-0.000001	0.000004	-20.574131	3.812323	31.483044	16.280920	7.208375	-12.782594	-4.320296	-47.649017	-11.684515	-111.151299	-22.137835	-77.109787	-5.633417	1.044074	-2.334443	-7.128156	-5.746030	6.319544	-110.959442	-16.371256	-28.092045	99.760208	-64.531898	75.907837	7.968149	-6.229898	7.232048	-1.073518	5.991639	-34.428085	28.105022	-7.606241	-19.851133	
3.738174	101.655451	8.528992	-0.698204	9.456932	59.482494	6.570259	-22.472826	13.138401	4.536756	23.658714	-4.013923	-9.991526	11.963057	-9.780104	0.	0.	0.	-23.437338	-12.438809	-21.202845	3.369830	28.114653	-9.041153	10.872959	-7.983398	-5.809061	0.	0.	0.	0.000000	0.000000	-0.000004	-19.665997	4.472437	31.490389	15.005569	6.359912	-12.094811	-4.452913	-46.778442	-12.292611	-111.910881	-20.342522	-75.936188	-4.930079	1.557288	-3.319390	-6.917782	-7.696721	6.577182	-105.111931	-21.151693	-29.748316	104.676773	-63.345646	81.550194	9.721456	-6.295167	7.254613	-2.425029	5.751190	-32.104271	29.576920	-10.938664	-16.637346	
3.604992	101.311411	9.315846	-0.624088	8.982299	61.709122	6.413009	-22.241285	12.358724	5.475872	23.396992	-5.868398	-10.385464	11.773341	-10.103180	0.	0.	0.	-22.889309	-11.697846	-19.313324	5.141407	29.591532	-11.775054	10.574534	-9.600142	-7.187376	0.	0.	0.	-0.000000	-0.000000	0.000002	-18.913595	6.413250	31.304874	14.015458	4.345871	-10.731895	-4.744446	-45.857014	-12.557368	-112.423676	-18.931282	-75.368896	-4.005917	1.832676	-3.643030	-6.603734	-10.258013	6.497856	-97.062782	-23.144533	-28.889481	-64.397255	-117.312859	-86.672668	10.762856	-4.785873	7.401904	-3.517793	4.581841	-30.086348	28.962936	-12.328539	-12.378815	
3.853443	101.398383	9.933504	-0.766548	9.339455	61.707195	6.413009	-22.241285	12.358724	5.475872	23.396992	-5.868398	-10.385464	11.773341	-10.103180	0.	0.	0.	-22.889309	-11.697846	-19.313324	5.141407	29.591532	-11.775054	10.574534	-9.600142	-7.187376	0.	0.	0.	-0.000000	-0.000000	0.000002	-18.609304	6.157714	33.189713	14.042679	4.247144	-12.689846	-4.744450	-45.856991	-12.557364	-111.448753	-20.510393	-76.170723	-5.791263	1.236502	-2.558894	-7.049703	-9.655104	4.609759	-97.062782	-23.144531	-28.889477	-64.397247	-117.312874	-86.672676	6.662959	-11.394436	3.720685	-4.368451	4.938100	-29.102289	29.039513	-13.190188	-15.176908	
3.718195	100.635794	10.543008	-0.709829	8.629621	64.896790	5.792493	-22.881500	10.688811	6.901140	24.292290	-7.994092	-10.157206	10.229146	-9.694012	0.	0.	0.	-22.844090	-11.016006	-17.779345	8.252522	32.210655	-14.872296	10.023003	-11.956203	-9.128693	0.	0.	0.	-0.000001	0.000000	0.000003	-17.171595	7.504463	31.252893	13.120481	3.736336	-9.126414	-5.386061	-45.438030	-13.158741	-111.789192	-20.357920	-75.775078	-5.211421	0.940029	-2.057056	-7.057722	-9.202331	6.085141	-85.296318	-21.951687	-30.561197	-53.642143	-120.738235	-75.450836	11.015748	-3.927980	7.582021	-4.781983	5.468583	-28.926647	23.956352	-7.451960	-17.203009	
3.823716	100.236303	11.166459	-0.898013	8.331258	66.589203	5.567922	-23.645664	10.320711	8.039959	25.228043	-9.046271	-9.913359	8.717767	-9.920656	0.	0.	0.	-22.618099	-10.620118	-18.867847	8.944289	33.754669	-14.373505	9.560328	-13.344937	-10.147098	0.	0.	0.	0.000001	-0.000000	-0.000001	-16.290312	8.573730	31.011377	12.595098	3.230110	-7.552766	-5.543288	-45.476463	-13.112443	-112.153015	-20.497801	-75.925888	-4.708416	0.793668	-1.951580	-7.323754	-7.448085	6.306827	-79.613731	-19.757778	-34.802486	-51.431076	-123.357155	-73.835228	10.368820	-3.923223	7.825829	-5.642371	5.363703	-27.722517	23.892061	-6.587658	-19.829672	
3.854966	99.806678	11.711227	-1.135860	7.827457	67.859695	6.040702	-24.217957	10.422321	8.936564	26.143272	-10.045821	-10.038708	6.867316	-10.338461	0.	0.	0.	-21.790651	-10.272487	-20.075134	8.990036	35.111969	-13.554328	9.045999	-14.781325	-10.801108	0.	0.	0.	0.000000	0.000000	-0.000001	-15.402673	9.981683	30.491474	12.281629	2.563049	-5.663538	-5.412961	-45.375690	-12.599504	-112.466331	-20.669960	-76.158188	-4.314203	0.681896	-1.945458	-7.541333	-5.664108	6.917241	-74.878654	-17.313179	-38.833752	-50.536816	-124.789169	-73.473824	9.437302	-4.073539	7.943923	-6.239091	4.668935	-26.234709	22.795862	-7.843574	-19.644081	
